<svg xmlns="http://www.w3.org/2000/svg" viewBox="0 0 600 300" font-family="system-ui, sans-serif">
  <rect width="600" height="300" fill="#f8fafc" rx="8"/>
  <text x="300" y="24" text-anchor="middle" font-size="14" fill="#64748b">数据流示意图</text>
  <rect x="50" y="50" width="120" height="50" rx="6" fill="#e0f2fe" stroke="#0ea5e9" stroke-width="1.5"/>
  <text x="110" y="80" text-anchor="middle" font-size="13" fill="#0369a1">content/</text>
  <rect x="240" y="50" width="120" height="50" rx="6" fill="#dcfce7" stroke="#22c55e" stroke-width="1.5"/>
  <text x="300" y="80" text-anchor="middle" font-size="13" fill="#15803d">compileMDX</text>
  <rect x="430" y="50" width="120" height="50" rx="6" fill="#fef3c7" stroke="#f59e0b" stroke-width="1.5"/>
  <text x="490" y="80" text-anchor="middle" font-size="13" fill="#b45309">HTML</text>
  <line x1="170" y1="75" x2="240" y2="75" stroke="#94a3b8" stroke-width="1.5" marker-end="url(#arrow)"/>
  <line x1="360" y1="75" x2="430" y2="75" stroke="#94a3b8" stroke-width="1.5" marker-end="url(#arrow)"/>
  <rect x="50" y="160" width="120" height="50" rx="6" fill="#ede9fe" stroke="#8b5cf6" stroke-width="1.5"/>
  <text x="110" y="190" text-anchor="middle" font-size="13" fill="#6d28d9">导航扫描</text>
  <rect x="240" y="160" width="120" height="50" rx="6" fill="#fce7f3" stroke="#ec4899" stroke-width="1.5"/>
  <text x="300" y="190" text-anchor="middle" font-size="13" fill="#be185d">NavNode[]</text>
  <rect x="430" y="160" width="120" height="50" rx="6" fill="#e0f2fe" stroke="#0ea5e9" stroke-width="1.5"/>
  <text x="490" y="190" text-anchor="middle" font-size="13" fill="#0369a1">Sidebar</text>
  <line x1="170" y1="185" x2="240" y2="185" stroke="#94a3b8" stroke-width="1.5" marker-end="url(#arrow)"/>
  <line x1="360" y1="185" x2="430" y2="185" stroke="#94a3b8" stroke-width="1.5" marker-end="url(#arrow)"/>
  <defs>
    <marker id="arrow" viewBox="0 0 10 10" refX="10" refY="5" markerWidth="8" markerHeight="8" orient="auto">
      <path d="M0 0L10 5L0 10z" fill="#94a3b8"/>
    </marker>
  </defs>
</svg>
