<svg xmlns="http://www.w3.org/2000/svg" viewBox="0 0 480 300" font-family="system-ui, sans-serif">
  <rect width="480" height="300" fill="#1e293b" rx="8"/>
  <rect x="0" y="0" width="480" height="36" fill="#334155" rx="8"/>
  <circle cx="20" cy="18" r="5" fill="#ef4444"/>
  <circle cx="36" cy="18" r="5" fill="#f59e0b"/>
  <circle cx="52" cy="18" r="5" fill="#22c55e"/>
  <text x="240" y="24" text-anchor="middle" font-size="12" fill="#94a3b8">OrbitDocs</text>
  <rect x="12" y="48" width="120" height="240" fill="#1e293b" rx="4"/>
  <line x1="24" y1="68" x2="120" y2="68" stroke="#475569" stroke-width="1"/>
  <text x="30" y="84" font-size="11" fill="#38bdf8">首页</text>
  <text x="30" y="108" font-size="11" fill="#94a3b8">安装指南</text>
  <text x="30" y="128" font-size="11" fill="#94a3b8">快速入门</text>
  <line x1="24" y1="140" x2="120" y2="140" stroke="#475569" stroke-width="1"/>
  <text x="30" y="160" font-size="11" fill="#cbd5e1">使用指南</text>
  <text x="42" y="180" font-size="10" fill="#64748b">架构概览</text>
  <text x="42" y="196" font-size="10" fill="#38bdf8">内容编写</text>
  <rect x="140" y="48" width="220" height="240" fill="none"/>
  <text x="150" y="72" font-size="14" fill="#f1f5f9" font-weight="bold">内容编写指南</text>
  <rect x="150" y="84" width="200" height="8" fill="#334155" rx="4"/>
  <rect x="150" y="100" width="180" height="6" fill="#334155" rx="3"/>
  <rect x="150" y="114" width="160" height="6" fill="#334155" rx="3"/>
  <rect x="150" y="140" width="200" height="100" fill="#334155" rx="4"/>
  <rect x="150" y="160" width="180" height="4" fill="#475569" rx="2"/>
  <rect x="150" y="172" width="140" height="4" fill="#475569" rx="2"/>
  <rect x="150" y="184" width="160" height="4" fill="#475569" rx="2"/>
  <rect x="150" y="196" width="120" height="4" fill="#475569" rx="2"/>
  <rect x="150" y="212" width="150" height="4" fill="#475569" rx="2"/>
  <text x="250" y="236" text-anchor="middle" font-size="9" fill="#64748b">代码块示例区域</text>
  <rect x="370" y="48" width="100" height="240" fill="none"/>
  <text x="380" y="72" font-size="11" fill="#64748b">目录</text>
  <line x1="380" y1="80" x2="460" y2="80" stroke="#334155" stroke-width="1"/>
  <text x="380" y="100" font-size="10" fill="#38bdf8">设计原则</text>
  <text x="380" y="120" font-size="10" fill="#94a3b8">数据流</text>
  <text x="380" y="140" font-size="10" fill="#94a3b8">路由解析</text>
  <text x="380" y="160" font-size="10" fill="#94a3b8">三栏布局</text>
</svg>
